Patient4_TMGait_0pt2_01_right_24_EMG.mot
version=1
nRows=20
nColumns=33
inDegrees=no
endheader
time	1LAddLong	2LGlutMax	3LGlutMed	4LIliopsoas	5LSemiMemb	6LBicFemLong	7LRecFem	8LVastMed	9LVastLat	10LGasMed	11LTibAnt	12lTibPost	13LPeroneusLong	14LSol	15LExtDigLong	16LFlexDigLong	17RAddLong	18RGlutMax	19RGlutMed	20RIliopsoas	21RSemiMemb	22RBicFemLong	23RRecFem	24RVastMed	25RVastLat	26RGasMed	27RTibAnt	28RTibPost	29RPeroneusLong	30RSol	31RExtDigLong	32RFlexDigLong
55.4	0.000305	0.032654	-0.044556	-0.002136	0.017548	-0.025177	0.043182	0.00351	-0.039825	0.007782	0.025024	0.002747	0.068817	0.036774	0.020294	-0.000305	-0.024872	0.34851	0.392	-0.030212	0.094604	0.043488	0.055542	0.041504	0.023193	0.054321	0.02533	0.016327	-0.33737	-0.39215	-0.006561	-0.014496
55.401	0.010529	0.041199	0.079803	0.008392	0.022583	-0.037537	-0.089264	0.006866	-0.035706	0.011444	0.10376	0.003967	0.02182	0.057373	0.045776	0.004425	-0.050659	0.30716	0.001678	0.061035	0.052795	0.019073	0.063782	0.18265	0.052948	-0.029755	0.051575	-0.007019	-0.64255	-0.30182	-0.004883	-0.012817
55.402	0.020905	0.023346	0.012207	0.009918	0.002289	-0.00946	-0.13046	0.007324	-0.00061	0.006409	0.057526	-0.010376	0.013885	0.030823	-0.041962	0.004578	-0.023651	0.15091	-0.035858	0.17548	0.014648	-0.029144	0.13229	0.20905	0.020905	-0.088806	-0.012054	-0.005951	0.043945	-0.34454	-0.00412	-0.006104
55.403	0.015106	0.053101	-0.061493	0.002289	0.011139	0.004425	-0.085907	0.010223	-0.017395	0.003662	0.058289	0.002441	0	0.001831	-0.1059	0.006866	0.00351	0.16541	0.14572	0.18234	-0.02533	-0.064392	0.22049	0.14099	0.011597	-0.032806	-0.062561	-0.014191	0.49042	-0.48294	-0.008087	-0.012512
55.404	0.01297	0.056458	-0.04303	-0.008545	0.01236	-0.000916	-0.059814	0.019989	0.004272	0.016174	0.094604	0.005646	-0.020142	-0.040588	-0.12924	-0.005798	0.005035	0.14084	0.32562	0.10056	0.086517	-0.065155	0.18936	0.112	0.003967	-0.002289	-0.006409	-0.16419	0.10117	-0.39597	-0.003052	-0.010681
55.405	0.00946	0.026245	0.029755	0.008698	0.010071	-0.023041	-0.014191	0.013123	0.057526	0.002441	0.096588	0.004425	-0.000305	-0.028229	-0.18616	0.001831	-0.005951	-0.024567	0.30548	0.04715	0.23499	-0.046997	0.10025	0.10605	-0.055237	0.095367	-0.005646	0.059662	0.012817	0.078583	-0.00351	-0.010529
55.406	0.004272	0.003815	0.014801	-0.008392	-0.005341	-0.01236	0.079193	0.010376	0.10864	0.003357	0.027008	0.003662	0.002747	-0.03891	-0.18356	-0.017853	0.0177	-0.046387	0.14923	0.011902	0.083466	-0.11017	0.13855	0.16144	-0.10346	0.025024	-0.01358	0.017395	-0.17258	0.30151	0.000458	-0.008545
55.407	0.007324	-0.019836	-0.009766	-0.002289	-0.040588	-0.018005	0.08728	0.022278	0.069275	-0.015717	-0.094757	0.006866	0.029297	-0.067902	-0.040588	0.001373	0.015717	0.020599	-0.10651	-0.000916	-0.03067	-0.15762	0.077362	0.10361	-0.13733	-0.034485	0.002747	-0.3775	-0.18463	0.39887	-0.003052	-0.014191
55.408	0.007782	0.038605	-0.007324	-0.00946	-0.031128	-0.066223	0.045929	0.01358	0.03418	-0.017395	-0.12436	0.003815	0.052643	-0.06134	0.017548	0.009308	0.037079	-0.023651	-0.14862	0.009918	-0.090332	-0.12131	-0.00351	-0.061951	-0.22324	-0.021667	0.012207	0.1358	-0.22751	-0.2005	-0.001221	-0.016022
55.409	0.009003	0.02533	-0.033112	0.020905	0.009918	-0.011749	0.015411	0.020447	0.027008	-0.003357	-0.074921	0.003357	0.029602	-0.03479	0.014343	0.002136	0.032501	-0.030212	0.14206	-0.006409	0.011902	-0.097351	-0.23987	-0.16419	-0.21896	-0.012817	-0.001373	0.12726	0.055542	-0.43747	-0.006104	-0.024414
55.41	0.002594	-0.000916	-0.007019	0.023499	0.066528	-0.026703	-0.049896	0.019531	0.024719	0.002136	-0.054779	0.00061	0.021973	-0.034637	-0.002289	-0.005798	0.017395	-0.11902	-0.027466	-0.010986	-0.02594	-0.005035	-0.49255	-0.11231	-0.10315	-0.005798	-0.019226	0.087585	0.29297	-0.3717	-0.000763	-0.032196
55.411	-0.005341	0.054169	0.024414	0.029602	0.041809	0.004578	-0.047607	0.014801	0.022736	0.00061	-0.028381	0.004883	0.014343	-0.033875	0.001831	0.007477	0.002594	-0.072784	0.055695	-0.070038	0.019836	0.026855	-0.37445	-0.15167	0.042877	0.011749	-0.041351	0.030823	0.41214	-0.024567	-0.001373	-0.021362
55.412	-0.00824	0.014038	-0.002747	0.015411	-0.022278	0.021667	0.004883	0.015869	0.015869	0.007782	-0.015564	0.00351	0.01709	-0.0177	0.006866	0.000153	0.023804	-0.020599	0.24384	-0.091248	0.011749	0.005035	-0.18234	-0.24841	0.006866	0.005798	-0.019379	0.047607	0.11398	0.77743	-0.001373	-0.011292
55.413	-0.028381	0.06012	-0.015564	0.004272	-0.081177	0.028687	0.045013	0.020447	-0.002441	0.005035	0.001526	0.010986	0.011902	-0.023041	0.01236	0.002289	0.041046	0.058594	0.34073	-0.10849	-0.015411	0.016174	-0.11734	-0.12772	0.099487	-0.023193	0.00412	0.037994	0.12894	0.65552	0.002441	-0.011902
55.414	-0.008392	-0.014496	0.000916	0.009766	-0.16144	-0.030212	0.001373	0.019684	0.006104	0.000458	-0.021057	0.003204	0.004883	-0.005951	0.01358	0.012054	0.047607	0.061035	0.4599	-0.074768	-0.013885	0.067749	0.04837	0.01709	0.32638	-0.022278	0.002747	0.012665	0.12116	0.03479	-0.002441	-0.013885
55.415	0.002136	-0.024719	-0.013428	0.009766	-0.17059	-0.046234	-0.010071	0.009918	0.010681	0	-0.003357	0.00351	-0.00946	-0.010986	0.005951	0.001831	0.002136	0.061951	0.073547	-0.037079	-0.11765	0.1181	0.16495	0.002136	0.28656	-0.013428	-0.02243	0.00061	0.37857	-0.29465	-0.002136	-0.012512
55.416	0.018921	0.020294	-0.048676	0.007019	-0.035858	-0.080566	-0.014191	-0.003052	0.013123	-0.007324	0.013885	0.001831	-0.00946	0.008545	0.014954	0.000153	0.005646	-0.028381	-0.26718	-0.028839	-0.19318	0.13916	0.08667	0.054932	0.081024	-0.010834	-0.040436	-0.007782	0.11047	-0.36789	-0.000305	-0.011749
55.417	0.030975	0.026398	-0.081635	0.021057	0.076752	-0.040283	-0.001221	0.004578	0.031891	0.005798	0.002747	0.006561	-0.002136	0.002899	0.028534	0.002899	-0.006561	-0.065002	-0.79849	-0.045624	0.088806	0.15182	-0.043945	0.11169	0.015717	-0.007019	-0.033569	-0.014191	0.081329	-0.079803	-0.002747	-0.007324
55.418	0.029755	0.037384	-0.11887	-0.002594	0.10391	0.010681	-0.015411	0.001526	0.020599	0.006409	0.009766	0.002899	-0.018311	-0.010986	0.03006	0.001373	-0.071259	0.012665	-0.6778	-0.028839	0.061493	0.11032	-0.06546	0.14221	0.018921	-0.001221	-0.01709	-0.011749	0.10788	0.061646	-0.001373	-0.018768
55.419	0.024567	0.014038	-0.04715	0.003052	0.12497	0.037842	0.011597	-0.001678	0.010529	-0.001831	0.00946	0.001068	-0.01297	-0.001068	0.021362	-0.009613	-0.079346	-0.082855	-0.11276	0.009308	0.11185	0.023804	-0.010071	0.097809	0.003357	0.001373	-0.001068	-0.018005	0.1358	0.16327	0.003357	-0.005188
